<svg xmlns="http://www.w3.org/2000/svg" viewBox="0 0 64 64" role="img" aria-labelledby="title desc">
  <title id="title">Telephony icon</title>
  <desc id="desc">Minimal phone system icon.</desc>
  <path fill="#EAF8F3" d="M32 58c14.4 0 26-11.6 26-26S46.4 6 32 6 6 17.6 6 32s11.6 26 26 26Z"/>
  <path fill="#0F9E6D" d="M23.1 17.2c1-.4 2.1.1 2.6 1l3.4 7c.4.8.2 1.8-.4 2.5l-2.6 2.7c2 4.1 5.4 7.5 9.5 9.5l2.7-2.6c.7-.6 1.7-.8 2.5-.4l7 3.4c1 .5 1.4 1.6 1 2.6l-1.7 5c-.4 1-1.3 1.7-2.4 1.7C28 49.6 14.4 36 14.4 19.3c0-1.1.7-2 1.7-2.4l5-1.7Z"/>
  <path fill="none" stroke="#0F9E6D" stroke-linecap="round" stroke-width="3" d="M38.8 18.8c3.2 1 5.7 3.5 6.7 6.7M37.7 10.9c7.1 1.8 12.7 7.4 14.5 14.5"/>
</svg>
