<svg xmlns="http://www.w3.org/2000/svg" viewBox="0 0 64 64" role="img" aria-labelledby="title desc">
  <title id="title">Webhooks and API icon</title>
  <desc id="desc">Connected nodes representing API integrations.</desc>
  <path fill="#F4FBF8" d="M32 58c14.4 0 26-11.6 26-26S46.4 6 32 6 6 17.6 6 32s11.6 26 26 26Z"/>
  <path fill="none" stroke="#0F9E6D" stroke-linecap="round" stroke-linejoin="round" stroke-width="4" d="M20 23h8l5 9-5 9h-8l5-9-5-9Zm24 0h-8l-5 9 5 9h8l-5-9 5-9Z"/>
  <path fill="none" stroke="#5DCCA3" stroke-linecap="round" stroke-width="3" d="M20 32H11m42 0h-9m-12-18v9m0 18v9"/>
  <circle cx="11" cy="32" r="4" fill="#0F9E6D"/>
  <circle cx="53" cy="32" r="4" fill="#0F9E6D"/>
  <circle cx="32" cy="14" r="4" fill="#5DCCA3"/>
  <circle cx="32" cy="50" r="4" fill="#5DCCA3"/>
</svg>
