<svg xmlns="http://www.w3.org/2000/svg" viewBox="0 0 64 64" role="img" aria-labelledby="title desc">
  <title id="title">WhatsApp logo</title>
  <desc id="desc">Green WhatsApp chat logo with phone symbol.</desc>
  <path fill="#25D366" d="M32 6C17.7 6 6 17.4 6 31.4c0 4.8 1.4 9.5 4 13.5L7.4 58l13.4-3.5c3.5 1.9 7.4 2.9 11.3 2.9 14.3 0 26-11.4 26-25.4S46.3 6 32 6Z"/>
  <path fill="#FFFFFF" d="M46.9 39.3c-.2-.3-.8-.5-1.6-.9s-5-2.4-5.8-2.7c-.8-.3-1.4-.4-2 .4-.6.9-2.3 2.7-2.8 3.3-.5.6-1 .7-1.9.2-.8-.4-3.5-1.3-6.7-4.1-2.5-2.2-4.2-5-4.7-5.8-.5-.9-.1-1.3.4-1.7.4-.4.9-1 1.3-1.5.4-.5.6-.9.9-1.5.3-.6.1-1.1-.1-1.5-.2-.4-2-4.7-2.7-6.4-.7-1.7-1.4-1.5-2-1.5h-1.7c-.6 0-1.5.2-2.3 1.1-.8.9-3 2.9-3 7.1s3.1 8.2 3.5 8.8c.4.6 6.1 9.2 14.7 12.9 2.1.9 3.7 1.4 5 1.8 2.1.7 4 .6 5.5.4 1.7-.3 5-2 5.7-4 .7-2 .7-3.7.5-4Z"/>
</svg>
